<?xml version="1.0" encoding="utf-8"?>
<!-- Generator: Adobe Illustrator 19.1.0, SVG Export Plug-In . SVG Version: 6.00 Build 0)  -->
<svg version="1.1" id="Calque_1" xmlns="http://www.w3.org/2000/svg" xmlns:xlink="http://www.w3.org/1999/xlink" x="0px" y="0px"
	 width="75.6px" height="55.4px" viewBox="-267 369.6 75.6 55.4" enable-background="new -267 369.6 75.6 55.4"
	 xml:space="preserve">
<path fill="#5B5B5B" d="M-212.1,390.6v-20.3h-12.3v4.3c-4.2-2.7-9.3-4.3-14.7-4.3c-14.9,0-27,12.1-27,27c0,14.9,12.1,27,27,27
	c5.4,0,10.4-1.6,14.7-4.4v4.4h12.3v-5.4c5.5,4.9,16.9,4.6,19.8,3.7c0,0,0-10.9,0-11.2c-12.1,1.4-17.3-4.8-19.4-8.8h19.4v-12H-212.1z
	 M-239.1,412c-8.1,0-14.7-6.6-14.7-14.7s6.6-14.7,14.7-14.7c5.7,0,10.6,3.3,13.1,8h-19v12h19.5C-227.6,408.1-232.9,412-239.1,412z"
	/>
</svg>
